<svg xmlns="http://www.w3.org/2000/svg" xmlns:xlink="http://www.w3.org/1999/xlink" width="100" zoomAndPan="magnify" viewBox="0 0 75 74.999997" height="100" preserveAspectRatio="xMidYMid meet" version="1.2"><defs><clipPath id="1035a1bb2c"><path d="M 7.5 55 L 67.5 55 L 67.5 66.75 L 7.5 66.75 Z M 7.5 55 "/></clipPath><clipPath id="af4a9a002e"><path d="M 7.5 26 L 67.5 26 L 67.5 55 L 7.5 55 Z M 7.5 26 "/></clipPath><clipPath id="6a0ec8419c"><path d="M 35 7.5 L 64 7.5 L 64 22 L 35 22 Z M 35 7.5 "/></clipPath></defs><g id="31693331bb"><rect x="0" width="75" y="0" height="74.999997" style="fill:#ffffff;fill-opacity:1;stroke:none;"/><rect x="0" width="75" y="0" height="74.999997" style="fill:#231717;fill-opacity:1;stroke:none;"/><g clip-rule="nonzero" clip-path="url(#1035a1bb2c)"><path style=" stroke:none;fill-rule:evenodd;fill:#eeecea;fill-opacity:1;" d="M 66.796875 66.578125 L 8.203125 66.578125 C 7.851562 66.578125 7.5 66.226562 7.5 65.875 L 7.5 56.617188 C 7.5 56.265625 7.851562 55.914062 8.203125 55.914062 L 66.796875 55.914062 C 67.148438 55.914062 67.5 56.265625 67.5 56.617188 L 67.5 65.875 C 67.5 66.226562 67.148438 66.578125 66.796875 66.578125 Z M 66.796875 66.578125 "/></g><g clip-rule="nonzero" clip-path="url(#af4a9a002e)"><path style=" stroke:none;fill-rule:evenodd;fill:#eeecea;fill-opacity:1;" d="M 7.851562 54.507812 L 11.953125 27.320312 C 11.953125 26.96875 12.304688 26.734375 12.65625 26.734375 L 16.171875 26.734375 L 16.171875 28.726562 L 15.351562 28.726562 C 14.179688 28.726562 13.242188 29.78125 13.242188 30.835938 C 13.242188 32.007812 14.179688 32.945312 15.351562 32.945312 L 32.460938 32.945312 C 33.632812 32.945312 34.570312 32.007812 34.570312 30.835938 C 34.570312 29.78125 33.632812 28.726562 32.460938 28.726562 L 31.640625 28.726562 L 31.640625 26.734375 L 62.34375 26.734375 C 62.695312 26.734375 63.046875 26.96875 63.046875 27.320312 L 67.148438 54.507812 Z M 56.601562 36.695312 L 42.070312 36.695312 C 40.429688 36.695312 39.140625 35.40625 39.140625 33.765625 C 39.140625 32.125 40.429688 30.71875 42.070312 30.71875 L 56.601562 30.71875 C 58.242188 30.71875 59.53125 32.125 59.53125 33.765625 C 59.53125 35.40625 58.242188 36.695312 56.601562 36.695312 Z M 42.070312 32.125 C 41.25 32.125 40.546875 32.828125 40.546875 33.765625 C 40.546875 34.585938 41.25 35.289062 42.070312 35.289062 L 56.601562 35.289062 C 57.421875 35.289062 58.125 34.585938 58.125 33.765625 C 58.125 32.828125 57.421875 32.125 56.601562 32.125 Z M 61.054688 52.515625 L 13.945312 52.515625 C 13.828125 52.515625 13.59375 52.515625 13.476562 52.28125 C 13.359375 52.164062 13.242188 51.929688 13.242188 51.8125 L 14.0625 46.304688 L 14.765625 40.914062 C 14.765625 40.5625 15.117188 40.328125 15.46875 40.328125 L 59.53125 40.328125 C 59.882812 40.328125 60.234375 40.5625 60.234375 40.914062 L 60.9375 46.304688 L 60.9375 46.421875 L 61.757812 51.695312 C 61.757812 51.8125 61.757812 51.8125 61.757812 51.8125 C 61.757812 52.28125 61.40625 52.515625 61.054688 52.515625 Z M 14.765625 51.109375 L 20.976562 51.109375 L 20.976562 47.125 L 15.351562 47.125 Z M 20.976562 45.71875 L 20.976562 41.734375 L 16.054688 41.734375 L 15.585938 45.71875 Z M 22.382812 51.109375 L 27.304688 51.109375 L 27.304688 47.125 L 22.382812 47.125 Z M 27.304688 45.71875 L 27.304688 41.734375 L 22.382812 41.734375 L 22.382812 45.71875 Z M 28.710938 51.109375 L 33.632812 51.109375 L 33.632812 47.125 L 28.710938 47.125 Z M 33.632812 45.71875 L 33.632812 41.734375 L 28.710938 41.734375 L 28.710938 45.71875 Z M 35.039062 51.109375 L 39.960938 51.109375 L 39.960938 47.125 L 35.039062 47.125 Z M 39.960938 45.71875 L 39.960938 41.734375 L 35.039062 41.734375 L 35.039062 45.71875 Z M 41.367188 51.109375 L 46.289062 51.109375 L 46.289062 47.125 L 41.367188 47.125 Z M 46.289062 45.71875 L 46.289062 41.734375 L 41.367188 41.734375 L 41.367188 45.71875 Z M 47.695312 51.109375 L 52.617188 51.109375 L 52.617188 47.125 L 47.695312 47.125 Z M 52.617188 45.71875 L 52.617188 41.734375 L 47.695312 41.734375 L 47.695312 45.71875 Z M 54.023438 51.109375 L 60.234375 51.109375 L 59.648438 47.125 L 54.023438 47.125 Z M 59.414062 45.71875 L 58.945312 41.734375 L 54.023438 41.734375 L 54.023438 45.71875 Z M 59.414062 45.71875 "/></g><path style=" stroke:none;fill-rule:evenodd;fill:#eeecea;fill-opacity:1;" d="M 43.242188 61.773438 L 31.757812 61.773438 C 31.40625 61.773438 31.054688 61.421875 31.054688 61.070312 L 31.054688 56.617188 C 31.054688 56.265625 31.40625 55.914062 31.757812 55.914062 L 43.242188 55.914062 C 43.59375 55.914062 43.945312 56.265625 43.945312 56.617188 L 43.945312 61.070312 C 43.945312 61.421875 43.59375 61.773438 43.242188 61.773438 Z M 43.242188 61.773438 "/><path style=" stroke:none;fill-rule:evenodd;fill:#eeecea;fill-opacity:1;" d="M 29.53125 31.539062 L 18.28125 31.539062 C 17.8125 31.539062 17.578125 31.304688 17.578125 30.835938 L 17.578125 15.015625 C 17.578125 14.664062 17.8125 14.3125 18.28125 14.3125 L 29.53125 14.3125 C 30 14.3125 30.234375 14.664062 30.234375 15.015625 L 30.234375 30.835938 C 30.234375 31.304688 30 31.539062 29.53125 31.539062 Z M 29.53125 31.539062 "/><path style=" stroke:none;fill-rule:evenodd;fill:#eeecea;fill-opacity:1;" d="M 32.460938 31.539062 L 15.351562 31.539062 C 15 31.539062 14.648438 31.304688 14.648438 30.835938 C 14.648438 30.484375 15 30.132812 15.351562 30.132812 L 32.460938 30.132812 C 32.8125 30.132812 33.164062 30.484375 33.164062 30.835938 C 33.164062 31.304688 32.8125 31.539062 32.460938 31.539062 Z M 32.460938 31.539062 "/><path style=" stroke:none;fill-rule:evenodd;fill:#eeecea;fill-opacity:1;" d="M 51.210938 28.140625 L 47.8125 28.140625 C 47.460938 28.140625 47.109375 27.789062 47.109375 27.4375 L 47.109375 20.875 C 47.109375 20.523438 47.460938 20.171875 47.8125 20.171875 L 51.210938 20.171875 C 51.679688 20.171875 51.914062 20.523438 51.914062 20.875 L 51.914062 27.4375 C 51.914062 27.789062 51.679688 28.140625 51.210938 28.140625 Z M 51.210938 28.140625 "/><g clip-rule="nonzero" clip-path="url(#6a0ec8419c)"><path style=" stroke:none;fill-rule:evenodd;fill:#eeecea;fill-opacity:1;" d="M 61.875 21.578125 L 37.265625 21.578125 C 36.445312 21.578125 35.859375 20.992188 35.859375 20.171875 L 35.859375 8.921875 C 35.859375 8.101562 36.445312 7.515625 37.265625 7.515625 L 61.875 7.515625 C 62.578125 7.515625 63.28125 8.101562 63.28125 8.921875 L 63.28125 20.171875 C 63.28125 20.992188 62.578125 21.578125 61.875 21.578125 Z M 59.179688 18.53125 L 39.960938 18.53125 C 39.375 18.53125 38.90625 18.0625 38.90625 17.476562 L 38.90625 11.617188 C 38.90625 11.03125 39.375 10.5625 39.960938 10.5625 L 59.179688 10.5625 C 59.765625 10.5625 60.234375 11.03125 60.234375 11.617188 L 60.234375 17.476562 C 60.234375 18.0625 59.765625 18.53125 59.179688 18.53125 Z M 59.179688 18.53125 "/></g></g></svg>